<svg width="50" height="50" xmlns="http://www.w3.org/2000/svg">
 <!-- Top Right Gear (6 teeth) -->

 <!-- Bottom Left Gear (8 teeth) -->
 <g>
  <title>Layer 1</title>
  <g transform="rotate(16.3559 36.0904 13.7947)" stroke="null" id="svg_6">
   <path stroke="#222938" id="svg_2" fill-rule="evenodd" stroke-linejoin="round" stroke-width="2" fill="#bcd9ae" d="m33.43423,1.24686l5.31228,0l-0.53123,2.72779a7.4372,7.63782 0 0 1 3.82484,2.29135l2.5499,-1.20023l2.65614,4.6918l-2.23116,1.63668a7.4372,7.63782 0 0 1 0,4.80091l2.23116,1.63668l-2.65614,4.6918l-2.5499,-1.20023a7.4372,7.63782 0 0 1 -3.82484,2.29135l0.53123,2.72779l-5.31228,0l0.53123,-2.72779a7.4372,7.63782 0 0 1 -3.82484,-2.29135l-2.5499,1.20023l-2.65614,-4.6918l2.23116,-1.63668a7.4372,7.63782 0 0 1 0,-4.80091l-2.23116,-1.63668l2.65614,-4.6918l2.5499,1.20023a7.4372,7.63782 0 0 1 3.82484,-2.29135l-0.53123,-2.72779z"/>
   <ellipse stroke="#222938" ry="5.16613" rx="5.06957" id="svg_5" cy="13.84821" cx="36.21726" stroke-width="2" fill="#bcd9ae"/>
  </g>
  <g transform="rotate(-13.5136 18.3222 32.0029)" stroke="null" id="svg_9">
   <path stroke="#222938" id="svg_7" fill-rule="evenodd" stroke-linejoin="round" stroke-width="2" fill="#bcd9ae" d="m15.12807,17.6424l6.38834,0l-0.63883,3.12185a8.94368,8.74118 0 0 1 4.5996,2.62235l3.0664,-1.37361l3.19417,5.36958l-2.6831,1.87311a8.94368,8.74118 0 0 1 0,5.49445l2.6831,1.87311l-3.19417,5.36958l-3.0664,-1.37361a8.94368,8.74118 0 0 1 -4.5996,2.62235l0.63883,3.12185l-6.38834,0l0.63883,-3.12185a8.94368,8.74118 0 0 1 -4.5996,-2.62235l-3.0664,1.37361l-3.19417,-5.36958l2.6831,-1.87311a8.94368,8.74118 0 0 1 0,-5.49445l-2.6831,-1.87311l3.19417,-5.36958l3.0664,1.37361a8.94368,8.74118 0 0 1 4.5996,-2.62235l-0.63883,-3.12185z"/>
   <ellipse stroke="#222938" ry="5.91242" rx="6.09647" id="svg_8" cy="32.06414" cx="18.47484" stroke-width="2" fill="#bcd9ae"/>
  </g>
 </g>
</svg>